<svg width="64" height="56" viewBox="0 0 64 56" fill="none" xmlns="http://www.w3.org/2000/svg">
	<path fill-rule="evenodd" clip-rule="evenodd" d="M56.08 36.7083L50.8 26.8917L45.52 36.7083H37.6L46.4 22.3792L37.6 9H45.52L50.8 17.075L56.08 9H64L54.32 22.3792L64 36.7083H56.08ZM0 40.6667V39.0833H64V40.6667H0ZM36.8 36.7083L43.2 26.8917V18.5L36.8 9V18.8167H28V9H20.8V12.0083C22.08 13.0375 23.2 14.3042 24 15.8875C25.04 17.8667 25.6 20.1625 25.6 22.8542C25.6 25.4667 25.04 27.7625 23.92 29.8208C23.04 31.325 22 32.5917 20.8 33.6208V36.7083H28V25.0708H36.8V36.7083ZM24.8 22.8542C24.8 25.4667 24.24 27.7625 23.12 29.8208C22 31.8792 20.56 33.4625 18.8 34.4917C17.36 35.4417 15.76 35.9958 14.08 36.3125C12.4 36.55 10.56 36.7083 8.64 36.7083H0V9H8.64C10.56 9 12.4 9.15833 14.16 9.39583C15.84 9.63333 17.44 10.2667 18.96 11.2167C20.8 12.4042 22.24 13.9875 23.28 15.9667C24.24 17.8667 24.8 20.2417 24.8 22.8542ZM14.0793 15.175C15.3593 15.8875 16.3193 16.9167 16.9593 18.1833C17.5993 19.45 17.9193 21.0333 17.9993 22.775C17.9993 24.675 17.6793 26.1792 17.1193 27.4458C16.4793 28.7125 15.5993 29.7417 14.4793 30.4542C13.5193 31.0875 12.4793 31.4042 11.4393 31.4833C10.3193 31.5625 9.0393 31.5625 7.4393 31.5625H7.2793V14.225H7.4393C8.8793 14.225 10.0793 14.225 11.1193 14.3042C12.1593 14.3833 13.1193 14.6208 14.0793 15.175ZM3.1998 43.0417V43.8333H1.5998V46.2083H3.1998V47H0.799805V43.0417H3.1998ZM3.1998 46.2083V43.8333H3.9998V46.2083H3.1998ZM15.1998 44.625H13.5998V43.0417H12.7998V47H13.5998V45.4167H15.1998V47H15.9998V43.0417H15.1998V44.625ZM28 43.0417V43.8333H26.4V47H25.6V43.8333H24V43.0417H28ZM37.6 43.8333H36.8V43.0417H36V47H36.8V44.625H37.6V45.4167H38.4V44.625H39.2V47H40V43.0417H39.2V43.8333H38.4V44.625H37.6V43.8333ZM48 43.0417H48.8V46.2083H51.2V47H48V43.0417ZM60.8002 43.8333H60.0002V43.0417H59.2002V43.8333H60.0002V44.625H60.7998V45.4167H60.0002V46.2083H59.2002V47H60.0002V46.2083H60.8002V45.4167H61.5998V46.2083H62.3998V47H63.1998V46.2083H62.3998V45.4167H61.5998V44.625L62.3996 44.625V43.8333H61.5996V44.625L60.8002 44.625V43.8333ZM63.2004 43.8333V43.0417H62.4004V43.8333H63.2004Z" fill="white"/>
</svg>
